<svg width="25" height="25" viewBox="0 0 25 25" fill="none" xmlns="http://www.w3.org/2000/svg">
<path d="M0 4C0 1.79086 1.79086 0 4 0H21C23.2091 0 25 1.79086 25 4V21C25 23.2091 23.2091 25 21 25H4C1.79086 25 0 23.2091 0 21V4Z" fill="white"/>
<path fill-rule="evenodd" clip-rule="evenodd" d="M6.75 17.125V7.75C6.75 7.15326 6.98705 6.58097 7.40901 6.15901C7.83097 5.73705 8.40326 5.5 9 5.5H16C16.5967 5.5 17.169 5.73705 17.591 6.15901C18.0129 6.58097 18.25 7.15326 18.25 7.75V15.5C18.25 15.6989 18.171 15.8897 18.0303 16.0303C17.8897 16.171 17.6989 16.25 17.5 16.25H17.25V18H17.5C17.6989 18 17.8897 18.079 18.0303 18.2197C18.171 18.3603 18.25 18.5511 18.25 18.75C18.25 18.9489 18.171 19.1397 18.0303 19.2803C17.8897 19.421 17.6989 19.5 17.5 19.5H9.125C8.49511 19.5 7.89102 19.2498 7.44562 18.8044C7.00022 18.359 6.75 17.7549 6.75 17.125ZM15.75 16.25H9.125C8.89294 16.25 8.67038 16.3422 8.50628 16.5063C8.34219 16.6704 8.25 16.8929 8.25 17.125C8.25 17.3571 8.34219 17.5796 8.50628 17.7437C8.67038 17.9078 8.89294 18 9.125 18H15.75V16.25ZM16.31 10.272C16.2678 10.1906 16.2041 10.1224 16.1258 10.0748C16.0475 10.0272 15.9576 10.002 15.866 10.002H13.552C13.4194 10.002 13.2922 10.0547 13.1984 10.1484C13.1047 10.2422 13.052 10.3694 13.052 10.502C13.052 10.6346 13.1047 10.7618 13.1984 10.8556C13.2922 10.9493 13.4194 11.002 13.552 11.002H14.9L12.999 13.686C12.946 13.7608 12.9146 13.8488 12.9082 13.9403C12.9019 14.0317 12.9208 14.1232 12.9629 14.2047C13.005 14.2861 13.0687 14.3544 13.147 14.4021C13.2254 14.4498 13.3153 14.475 13.407 14.475H16.011C16.1436 14.475 16.2708 14.4223 16.3646 14.3286C16.4583 14.2348 16.511 14.1076 16.511 13.975C16.511 13.8424 16.4583 13.7152 16.3646 13.6214C16.2708 13.5277 16.1436 13.475 16.011 13.475H14.374L16.274 10.791C16.3272 10.7162 16.3588 10.6282 16.3653 10.5367C16.3719 10.4451 16.3521 10.3536 16.31 10.272ZM11.315 8.13C11.2548 7.95091 11.1399 7.79525 10.9865 7.68497C10.8331 7.57469 10.6489 7.51537 10.46 7.51537C10.2711 7.51537 10.0869 7.57469 9.9335 7.68497C9.7801 7.79525 9.66519 7.95091 9.605 8.13L8.928 10.16C8.9255 10.1673 8.92316 10.1746 8.921 10.182L8.538 11.328C8.51719 11.3904 8.50886 11.4562 8.5135 11.5218C8.51814 11.5874 8.53566 11.6515 8.56505 11.7103C8.59444 11.7691 8.63513 11.8216 8.68479 11.8647C8.73445 11.9078 8.79212 11.9407 8.8545 11.9615C8.98048 12.0035 9.11799 11.9938 9.2368 11.9345C9.29563 11.9051 9.34809 11.8644 9.39119 11.8147C9.43429 11.765 9.46719 11.7074 9.488 11.645L9.758 10.829H11.16L11.432 11.645C11.474 11.7708 11.5643 11.8748 11.6831 11.9341C11.8018 11.9934 11.9392 12.003 12.065 11.961C12.1908 11.919 12.2948 11.8287 12.3541 11.7099C12.4134 11.5912 12.423 11.4538 12.381 11.328L11.999 10.182C11.9965 10.1746 11.9938 10.1673 11.991 10.16L11.315 8.13ZM10.09 9.828L10.458 8.726L10.825 9.828H10.09Z" fill="black"/>
</svg>
